<svg id="law" xmlns="http://www.w3.org/2000/svg" width="78" height="78" viewBox="0 0 78 78">
  <path id="Path_61" data-name="Path 61" d="M162.133,457.855A6.855,6.855,0,0,0,155.277,451H127.855A6.855,6.855,0,0,0,121,457.855v2.438h41.133Z" transform="translate(-102.566 -382.293)" fill="#0dce91"/>
  <path id="Path_62" data-name="Path 62" d="M73.43,18.434v-4.57h-28a6.847,6.847,0,0,0-4.149-4.149V0h-4.57V9.714a6.846,6.846,0,0,0-4.149,4.149h-28v4.57h5.714L0,43.57A11.439,11.439,0,0,0,11.426,55H16A11.439,11.439,0,0,0,27.422,43.57L17.092,18.434H32.566a6.847,6.847,0,0,0,4.149,4.149V55.247a11.447,11.447,0,0,0-8.909,8.89H50.195a11.447,11.447,0,0,0-8.909-8.89V22.583a6.846,6.846,0,0,0,4.149-4.149H60.862L50.578,43.57A11.439,11.439,0,0,0,62,55h4.57A11.439,11.439,0,0,0,78,43.57L67.67,18.434ZM21.708,41.285H5.714l8-19.2Zm50.578,0H56.292l8-19.2Z" fill="#0dce91"/>
</svg>
