<svg id="_006---Girl-Power" data-name="006---Girl-Power" xmlns="http://www.w3.org/2000/svg" width="47.885" height="78.867" viewBox="0 0 47.885 78.867">
  <path id="Shape" d="M21.085,28.054A4.441,4.441,0,0,0,24.451,23.5c-3.442-3.018-4.06-8.558,0-11.2V3.281A3.284,3.284,0,0,0,21.169,0H19.282A3.308,3.308,0,0,0,16,3.281V23.688a4.305,4.305,0,0,0,5.084,4.366Z" transform="translate(6.533)" fill="orange"/>
  <path id="Shape-2" data-name="Shape" d="M12.225,24.533a4.225,4.225,0,0,0,4.225-4.225V5.1a3.1,3.1,0,0,0-3.1-3.1H11.1A3.1,3.1,0,0,0,8,5.1v15.21A4.225,4.225,0,0,0,12.225,24.533Z" transform="translate(3.267 0.817)" fill="orange"/>
  <ellipse id="Oval" cx="6" cy="5.5" rx="6" ry="5.5" transform="translate(17.884 52)" fill="orange"/>
  <path id="Shape-3" data-name="Shape" d="M4.225,23.308A4.225,4.225,0,0,0,8.45,19.083V8.1A3.1,3.1,0,0,0,5.352,5H3.1A3.1,3.1,0,0,0,0,8.1V19.083a4.225,4.225,0,0,0,4.225,4.225Z" transform="translate(0 2.042)" fill="orange"/>
  <path id="Shape-4" data-name="Shape" d="M1,23.486V29A12.551,12.551,0,0,0,7.519,39.857a6.2,6.2,0,0,1,3.339,5.352V73.375a1.408,1.408,0,0,0,1.408,1.408H34.8a1.408,1.408,0,0,0,1.408-1.408V46.307a6.584,6.584,0,0,1,3.815-5.656A12.6,12.6,0,0,0,47.475,29V13.281A3.284,3.284,0,0,0,44.194,10H34.1a3.611,3.611,0,0,0-2.5.986c-1.783,1.673-1.044,4.559.711,6.238a6.038,6.038,0,0,0,4.4,1.227,3.739,3.739,0,0,1,3.726,3.76V26.9a1.408,1.408,0,0,1-2.817,0V22.21a.925.925,0,0,0-.9-.944,11.3,11.3,0,0,1-3.452-.4,7.167,7.167,0,0,1-5.493,5.862,7.014,7.014,0,0,1-7.98-4.491A6.963,6.963,0,0,1,9.45,21.223,6.976,6.976,0,0,1,1,23.486Zm30.539,6.3a1.41,1.41,0,0,1,.89,2.676c-7.325,2.438-7.487,8.281-7.487,8.528a1.408,1.408,0,1,1-2.817-.008c0-.328.107-8.094,9.413-11.195Zm-8.005,15.42a8.45,8.45,0,0,1,1.408,16.773v2.943h2.817a1.408,1.408,0,1,1,0,2.817H24.942v2.817a1.408,1.408,0,0,1-2.817,0V67.742H19.308a1.408,1.408,0,1,1,0-2.817h2.817V61.982a8.45,8.45,0,0,1,1.408-16.773Z" transform="translate(0.408 4.083)" fill="orange"/>
  <path id="Shape-5" data-name="Shape" d="M32.45,10.45V5.1a3.1,3.1,0,0,0-3.1-3.1H27.1A3.1,3.1,0,0,0,24,5.1v5.418c.877-.094-.63-.066,8.45-.066Z" transform="translate(9.8 0.817)" fill="orange"/>
</svg>
