<svg xmlns="http://www.w3.org/2000/svg" width="78" height="78.002" viewBox="0 0 78 78.002">
  <path id="Union_1" data-name="Union 1" d="M22874.543,24701.5a2.435,2.435,0,0,1-1.666-2.312V24684.5a17.08,17.08,0,0,1,9.152-15.115,12.188,12.188,0,1,1,15.82,0,17.08,17.08,0,0,1,9.152,15.115v14.688a2.439,2.439,0,0,1-1.666,2.314,48.678,48.678,0,0,1-30.793,0Zm3.209-17v12.895a44.154,44.154,0,0,0,24.375,0V24684.5a12.188,12.188,0,1,0-24.375,0Zm4.875-24.377a7.313,7.313,0,1,0,7.313-7.312A7.322,7.322,0,0,0,22882.627,24660.123Zm-51.959,41.377a2.435,2.435,0,0,1-1.666-2.312V24684.5a17.08,17.08,0,0,1,9.152-15.115,12.188,12.188,0,1,1,15.82,0,17.078,17.078,0,0,1,9.15,15.115v14.688a2.439,2.439,0,0,1-1.666,2.314,48.672,48.672,0,0,1-30.791,0Zm3.209-17v12.895a44.154,44.154,0,0,0,24.375,0V24684.5a12.188,12.188,0,1,0-24.375,0Zm4.875-24.377a7.313,7.313,0,1,0,7.313-7.312A7.321,7.321,0,0,0,22838.752,24660.123Zm25.594-10.967a3.656,3.656,0,1,1,3.656,3.654A3.66,3.66,0,0,1,22864.346,24649.156Zm8.826-7.609a7.311,7.311,0,0,0-10.342,0,2.438,2.438,0,0,1-3.447-3.449,12.194,12.194,0,0,1,17.238,0,2.439,2.439,0,0,1-3.449,3.449Zm-19.82-6.031a2.439,2.439,0,0,1,0-3.447,20.714,20.714,0,0,1,29.3,0,2.438,2.438,0,0,1-3.449,3.445,15.846,15.846,0,0,0-22.4,0,2.438,2.438,0,0,1-3.447,0Z" transform="translate(-22829.002 -24625.998)" fill="#ff5e6b"/>
</svg>
