<?xml version="1.0" encoding="utf-8"?>
<!-- Generator: Adobe Illustrator 19.0.1, SVG Export Plug-In . SVG Version: 6.00 Build 0)  -->
<svg version="1.1"
	 id="svg2" sodipodi:docname="Microsoft-Office-2013-lineup.svg" inkscape:version="0.48.3.1 r9886" xmlns:rdf="http://www.w3.org/1999/02/22-rdf-syntax-ns#" xmlns:svg="http://www.w3.org/2000/svg" xmlns:dc="http://purl.org/dc/elements/1.1/" xmlns:sodipodi="http://sodipodi.sourceforge.net/DTD/sodipodi-0.dtd" xmlns:cc="http://creativecommons.org/ns#" xmlns:inkscape="http://www.inkscape.org/namespaces/inkscape"
	 xmlns="http://www.w3.org/2000/svg" xmlns:xlink="http://www.w3.org/1999/xlink" x="0px" y="0px" viewBox="-379 15.2 340 332.2"
	 style="enable-background:new -379 15.2 340 332.2;" xml:space="preserve">
<style type="text/css">
	.st0{fill:#2A5699;}
	.st1{fill:#FFFFFF;}
</style>
<sodipodi:namedview  id="namedview122" inkscape:window-maximized="1" inkscape:window-y="0" inkscape:window-x="0" inkscape:window-height="960" inkscape:window-width="1280" fit-margin-bottom="0" fit-margin-right="0" inkscape:current-layer="svg2" inkscape:pageshadow="2" inkscape:pageopacity="0" objecttolerance="10" guidetolerance="10" gridtolerance="10" inkscape:cy="53.75" inkscape:cx="321.51598" inkscape:zoom="1.0905983" showgrid="false" bordercolor="#666666" borderopacity="1" fit-margin-top="0" fit-margin-left="0" pagecolor="#ffffff">
	</sodipodi:namedview>
<g id="g3103" transform="translate(-21.015556,0)">
	<path id="path6" inkscape:connector-curvature="0" class="st0" d="M-180.6,23h22c0,9.8,0,19.6,0,29.4c39.4,0.2,78.7-0.4,118.1,0.2
		c8.4-0.8,15,5.7,14.2,14.1c0.6,72.5-0.1,145.1,0.4,217.6c-0.4,7.4,0.7,15.7-3.6,22.3c-5.4,3.8-12.3,3.3-18.6,3.6
		c-36.8-0.2-73.7-0.1-110.5-0.1c0,9.8,0,19.6,0,29.4h-23c-56-10.2-112.2-19.6-168.3-29.4c0-85.9,0-171.7,0-257.6
		C-293.5,42.6-237.1,33-180.6,23z"/>
	<path id="path46" inkscape:connector-curvature="0" class="st1" d="M-158.6,63.5c40.5,0,81,0,121.5,0c0,78.5,0,157.1,0,235.6
		c-40.5,0-81,0-121.5,0c0-9.8,0-19.6,0-29.4c31.9,0,63.8,0,95.7,0c0-4.9,0-9.8,0-14.7c-31.9,0-63.8,0-95.7,0c0-6.1,0-12.3,0-18.4
		c31.9,0,63.8,0,95.7,0c0-4.9,0-9.8,0-14.7c-31.9,0-63.8,0-95.7,0c0-6.1,0-12.3,0-18.4c31.9,0,63.8,0,95.7,0c0-4.9,0-9.8,0-14.7
		c-31.9,0-63.8,0-95.7,0c0-6.1,0-12.3,0-18.4c31.9,0,63.8,0,95.7,0c0-4.9,0-9.8,0-14.7c-31.9,0-63.8,0-95.7,0c0-6.1,0-12.3,0-18.4
		c31.9,0,63.8,0,95.7,0c0-4.9,0-9.8,0-14.7c-31.9,0-63.8,0-95.7,0c0-6.1,0-12.3,0-18.4c31.9,0,63.8,0,95.7,0c0-4.9,0-9.8,0-14.7
		c-31.9,0-63.8,0-95.7,0C-158.6,80.7-158.6,72-158.6,63.5z"/>
	<path id="path88" inkscape:connector-curvature="0" class="st1" d="M-273.9,128.5c7-0.4,14-0.7,21-1.1c4.9,24.8,9.9,49.7,15.2,74.4
		c4.2-25.5,8.8-51,13.2-76.5c7.4-0.3,14.7-0.7,22-1.1c-8.3,35.7-15.6,71.6-24.7,107.1c-6.1,3.2-15.3-0.1-22.6,0.4
		c-4.9-24.4-10.6-48.6-15-73.1c-4.3,23.8-9.9,47.3-14.8,71c-7.1-0.4-14.2-0.8-21.3-1.3c-6.1-32.4-13.3-64.6-19-97
		c6.3-0.3,12.6-0.6,18.9-0.8c3.8,23.4,8.1,46.8,11.4,70.3C-284.4,176.6-279.1,152.6-273.9,128.5z"/>
</g>
</svg>
